<?xml version="1.0" encoding="UTF-8" standalone="no"?>
<!-- Created with Inkscape (http://www.inkscape.org/) -->

<svg
   xmlns:dc="http://purl.org/dc/elements/1.1/"
   xmlns:cc="http://creativecommons.org/ns#"
   xmlns:rdf="http://www.w3.org/1999/02/22-rdf-syntax-ns#"
   xmlns:svg="http://www.w3.org/2000/svg"
   xmlns="http://www.w3.org/2000/svg"
   xmlns:sodipodi="http://sodipodi.sourceforge.net/DTD/sodipodi-0.dtd"
   xmlns:inkscape="http://www.inkscape.org/namespaces/inkscape"
   width="297mm"
   height="210mm"
   viewBox="0 0 1052.3622 744.09448"
   id="svg2"
   version="1.1"
   inkscape:version="0.91 r13725"
   sodipodi:docname="pomelo.svg">
  <defs
     id="defs4" />
  <sodipodi:namedview
     id="base"
     pagecolor="#ffffff"
     bordercolor="#666666"
     borderopacity="1.0"
     inkscape:pageopacity="0.0"
     inkscape:pageshadow="2"
     inkscape:zoom="0.98994949"
     inkscape:cx="280.68276"
     inkscape:cy="185.31179"
     inkscape:document-units="px"
     inkscape:current-layer="g3468"
     showgrid="false"
     inkscape:window-width="2880"
     inkscape:window-height="1579"
     inkscape:window-x="1920"
     inkscape:window-y="0"
     inkscape:window-maximized="1"
     inkscape:snap-bbox="true"
     inkscape:object-paths="true" />
  <metadata
     id="metadata7">
    <rdf:RDF>
      <cc:Work
         rdf:about="">
        <dc:format>image/svg+xml</dc:format>
        <dc:type
           rdf:resource="http://purl.org/dc/dcmitype/StillImage" />
        <dc:title />
      </cc:Work>
    </rdf:RDF>
  </metadata>
  <g
     inkscape:label="Layer 1"
     inkscape:groupmode="layer"
     id="layer1"
     transform="translate(0,-308.26772)">
    <g
       id="g3468"
       transform="matrix(0.5473022,0,0,0.5473022,386.79355,401.97203)"
       style="opacity:1">
      <g
         id="g8270"
         transform="translate(-9.2284755,20.302636)">
        <path
           inkscape:connector-curvature="0"
           id="path3474"
           d="m 358.42859,1148.5487 c -77.28615,2.224 -152.83382,-15.5924 -229.85862,-14.0658 -115.027055,-0.8594 -222.561376,-48.9535 -318.97666,-107.9978 -71.78621,-10.9405 -129.73909,-59.25079 -188.69488,-98.04617 -55.03369,-51.12759 -112.03309,-99.93119 -130.46984,-176.54355 -37.62804,-67.60285 -47.427,-145.65443 -60.16948,-220.61908 5.22643,-74.24953 -16.40562,-148.8486 5.5382,-221.56857 1.0074,-79.91953 21.04532,-158.12281 36.53401,-235.931566 26.13908,-73.14078382 41.97837,-150.265028 68.1555,-222.718434 56.9686,-34.47697 141.00029,9.0928 209.33579,-14.46311 70.77408,26.17649 139.06077,59.14671 204.853498,97.687309 67.702906,31.127609 129.582752,76.765293 201.982102,99.023411 59.13391,51.576983 135.15245,68.45947 212.37322,61.319733 83.69614,0.433708 157.13304,-35.186896 224.39716,-78.421533 73.10897,0.104026 118.31034,-62.143812 182.42317,-83.804099 71.66754,-4.214247 141.83734,16.827953 213.9648,11.885569 76.41474,-23.251994 85.51554,56.68899938 99.62714,109.22007 19.8038,67.15749 21.6218,138.64814 29.9849,208 -1.1025,77.23195 -7.4228,154.63529 -19.3073,231.26055 -8.1183,123.2431 -53.2258,242.67984 -118.60343,346.64108 -29.13297,77.62719 -97.74867,128.69058 -161.82488,176.38609 -60.77731,54.9799 -150.63215,47.5663 -217.70763,92.0772 -73.60697,16.9118 -146.83582,45.2999 -224.2541,39.6889 -5.43464,-2.3134 -15.11072,2.7798 -19.30267,0.9898 z"
           style="fill:#f4e3d8" />
        <path
           inkscape:connector-curvature="0"
           id="path3472"
           d="m 331.42859,1142.3791 c -78.0972,-1.5867 -154.62343,-18.302 -233.014511,-14.9121 -111.846273,-10.0007 -210.862559,-64.7915 -307.216769,-117.6567 -105.46859,-21.47805 -183.74702,-102.59301 -257.12026,-175.57091 -31.64535,-70.83631 -75.23741,-138.16633 -82.61158,-217.32952 -27.29693,-76.00289 -12.60003,-157.92683 -22.36208,-236.44408 15.11843,-80.64662 16.42887,-163.25937 34.27715,-243.96462 7.94141,-72.40745 45.4406,-137.11713897 59.07504,-208.453319 -13.637,-53.256001 67.92249,-135.708551 81.28111,-51.542771 25.52582,80.636811 21.35525,165.619144 48.76596,246.37646 12.5263,71.18347 32.31573,141.13203 56.44035,208.12354 33.12908,73.34976 60.09,150.10048 87.98246,226 30.90026,63.44126 68.79123,124.07873 108.08489,182.71664 43.574358,53.04862 88.8550851,108.75766 143.861469,152.99514 76.671211,58.23144 155.712511,114.70544 245.297891,151.35194 65.73191,1.3208 125.06719,47.4407 194.52451,32.2106 69.27054,8.6336 129.75217,-14.5732 192.23437,-34.7599 76.09419,-8.5253 140.83609,-53.15022 190.296,-109.30752 30.44042,-35.30719 55.4449,-71.86968 79.5428,-111.63798 29.1282,-54.35361 68.53141,-102.72571 83.33921,-164.22614 12.2213,-63.44918 34.725,-127.91417 39.1714,-193.42112 -1.9323,-61.04483 19.4004,-128.61126 17.9079,-193.7628 4.3028,-49.70015 -23.7772,-131.11284 3.5524,-161.25357 9.2395,77.46263 27.6999,155.11155 15.246,233.45268 -7.3709,91.16342 -14.2975,183.57276 -34.6273,272.89982 -19.7315,78.72547 -51.9362,153.61224 -95.90702,221.82312 -32.49475,89.80149 -118.63176,138.88318 -188.76473,195.89621 -72.55095,27.817 -147.27305,49.9547 -219.19472,79.6499 -72.18063,8.4548 -140.4053,40.5822 -214.73022,31.8418 l -12.52276,-0.4384 -12.80896,-0.6564 0,0 z m 119.5,-265.94772 C 381.50242,854.70941 302.2481,868.13932 239.87939,822.30589 160.0723,763.98194 71.231061,713.82502 6.3160287,638.04661 -31.573337,580.28478 -76.729405,526.52324 -92.745036,457.69257 -132.2756,371.95773 -156.96216,278.43972 -166.07531,184.57727 -182.64838,114.62713 -147.35851,30.05935 -67.375826,27.837355 41.197256,41.523793 148.42308,74.168543 245.54263,124.83297 c 58.17136,37.54432 125.3282,89.07274 198.41147,73.62692 55.1332,-37.83551 113.28852,-69.22257 176.22679,-92.44963 58.91568,-33.33029 115.27605,-91.41866 188.4509,-72.91488 59.15916,41.90903 100.10452,111.79263 98.5942,184.7125 25.79191,103.32529 -13.24348,207.06285 -45.13797,304.36521 -38.42365,63.63353 -50.02181,140.18606 -103.98779,194.35132 -39.97971,54.99703 -92.96208,97.44959 -154.17164,126.89567 -44.9582,26.23374 -101.48091,35.32694 -153,33.0113 z m -59.5,-698.12198 c -40.41967,3.71933 -98.19333,-54.69703 -23.47951,-51.46072 28.21413,-28.010727 128.36306,-70.590719 133.80495,-9.6471 -24.72665,32.30058 -67.99764,63.11129 -110.32544,61.10782 z m -93.6244,-66.90735 c -95.92101,-22.199799 136.69297,-4.5574 22.64076,-0.069 l -8.96443,0.44237 -13.67633,-0.37334 z"
           style="fill:#b5d04c" />
        <path
           inkscape:connector-curvature="0"
           id="path3470"
           d="M 450.92859,876.43138 C 381.50242,854.70941 302.2481,868.13932 239.87939,822.30589 160.0723,763.98194 71.231061,713.82502 6.3160287,638.04661 -31.573337,580.28478 -76.729405,526.52324 -92.745036,457.69257 -132.2756,371.95773 -156.96216,278.43972 -166.07531,184.57727 -182.64838,114.62713 -147.35851,30.05935 -67.375826,27.837355 41.197256,41.523793 148.42308,74.168543 245.54263,124.83297 c 58.17136,37.54432 125.3282,89.07274 198.41147,73.62692 55.1332,-37.83551 113.28852,-69.22257 176.22679,-92.44963 58.91568,-33.33029 115.27605,-91.41866 188.4509,-72.91488 59.15916,41.90903 100.10452,111.79263 98.5942,184.7125 25.79191,103.32529 -13.24348,207.06285 -45.13797,304.36521 -38.42365,63.63353 -50.02181,140.18606 -103.98779,194.35132 -39.97971,54.99703 -92.96208,97.44959 -154.17164,126.89567 -44.9582,26.23374 -101.48091,35.32694 -153,33.0113 z m -59.5,-698.12198 c -40.41967,3.71933 -98.19333,-54.69703 -23.47951,-51.46072 28.21413,-28.010727 128.36306,-70.590719 133.80495,-9.6471 -24.72665,32.30058 -67.99764,63.11129 -110.32544,61.10782 z m -93.6244,-66.90735 c -95.92101,-22.199799 136.69297,-4.5574 22.64076,-0.069 l -8.96443,0.44237 -13.67633,-0.37334 z"
           style="fill:#ea7b5c" />
      </g>
    </g>
  </g>
</svg>
